<svg width="78" height="34" viewBox="0 0 78 34" fill="none" xmlns="http://www.w3.org/2000/svg">
<path d="M62.2181 25.416V0H66.3581V6.552L66.2141 9.972C66.9581 9.276 67.7861 8.664 68.6981 8.136C69.6101 7.584 70.6661 7.308 71.8661 7.308C73.7621 7.308 75.1421 7.92 76.0061 9.144C76.8701 10.368 77.3021 12.096 77.3021 14.328V25.416H73.1621V14.868C73.1621 13.404 72.9461 12.372 72.5141 11.772C72.0821 11.172 71.3741 10.872 70.3901 10.872C69.6221 10.872 68.9381 11.064 68.3381 11.448C67.7621 11.808 67.1021 12.348 66.3581 13.068V25.416H62.2181Z" fill="#129487"/>
<path d="M42.0736 25.4161V7.74011H45.4936L45.7816 10.1161H45.9256C46.7176 9.34811 47.5816 8.68811 48.5176 8.13611C49.4536 7.58411 50.5216 7.30811 51.7216 7.30811C53.6176 7.30811 54.9976 7.92011 55.8616 9.14411C56.7256 10.3681 57.1576 12.0961 57.1576 14.3281V25.4161H53.0176V14.8681C53.0176 13.4041 52.8016 12.3721 52.3696 11.7721C51.9376 11.1721 51.2296 10.8721 50.2456 10.8721C49.4776 10.8721 48.7936 11.0641 48.1936 11.4481C47.6176 11.8081 46.9576 12.3481 46.2136 13.0681V25.4161H42.0736Z" fill="#129487"/>
<path d="M27.7951 25.8481C26.2591 25.8481 24.9991 25.3681 24.0151 24.4081C23.0551 23.4481 22.5751 22.2001 22.5751 20.6641C22.5751 18.7681 23.4031 17.3041 25.0591 16.2721C26.7151 15.2161 29.3551 14.4961 32.9791 14.1121C32.9551 13.1761 32.7031 12.3721 32.2231 11.7001C31.7671 11.0041 30.9391 10.6561 29.7391 10.6561C28.8751 10.6561 28.0231 10.8241 27.1831 11.1601C26.3671 11.4961 25.5631 11.9041 24.7711 12.3841L23.2591 9.61211C24.2431 8.98811 25.3471 8.44811 26.5711 7.99211C27.8191 7.53611 29.1391 7.30811 30.5311 7.30811C32.7391 7.30811 34.3831 7.96811 35.4631 9.28811C36.5671 10.5841 37.1191 12.4681 37.1191 14.9401V25.4161H33.6991L33.4111 23.4721H33.2671C32.4751 24.1441 31.6231 24.7081 30.7111 25.1641C29.8231 25.6201 28.8511 25.8481 27.7951 25.8481ZM29.1271 22.6081C29.8471 22.6081 30.4951 22.4401 31.0711 22.1041C31.6711 21.7441 32.3071 21.2641 32.9791 20.6641V16.7041C30.5791 17.0161 28.9111 17.4841 27.9751 18.1081C27.0391 18.7081 26.5711 19.4521 26.5711 20.3401C26.5711 21.1321 26.8111 21.7081 27.2911 22.0681C27.7711 22.4281 28.3831 22.6081 29.1271 22.6081ZM29.9911 33.2281C29.2471 33.2281 28.6471 33.0121 28.1911 32.5801C27.7351 32.1481 27.5071 31.5721 27.5071 30.8521C27.5071 30.1561 27.7351 29.5921 28.1911 29.1601C28.6471 28.7281 29.2471 28.5121 29.9911 28.5121C30.7351 28.5121 31.3351 28.7281 31.7911 29.1601C32.2471 29.5921 32.4751 30.1561 32.4751 30.8521C32.4751 31.5721 32.2471 32.1481 31.7911 32.5801C31.3351 33.0121 30.7351 33.2281 29.9911 33.2281Z" fill="#129487"/>
<path d="M0 25.4161V1.87207H4.176V11.3401H13.716V1.87207H17.892V25.4161H13.716V14.9761H4.176V25.4161H0Z" fill="#129487"/>
</svg>
