<svg width="78" height="34" viewBox="0 0 78 34" fill="none" xmlns="http://www.w3.org/2000/svg">
<path d="M62.2188 25.416V0H66.3587V6.552L66.2148 9.972C66.9588 9.276 67.7868 8.664 68.6988 8.136C69.6108 7.584 70.6668 7.308 71.8668 7.308C73.7628 7.308 75.1428 7.92 76.0068 9.144C76.8708 10.368 77.3027 12.096 77.3027 14.328V25.416H73.1628V14.868C73.1628 13.404 72.9468 12.372 72.5148 11.772C72.0828 11.172 71.3748 10.872 70.3908 10.872C69.6228 10.872 68.9388 11.064 68.3388 11.448C67.7628 11.808 67.1027 12.348 66.3587 13.068V25.416H62.2188Z" fill="black"/>
<path d="M42.0742 25.416V7.74H45.4942L45.7822 10.116H45.9262C46.7182 9.348 47.5822 8.688 48.5182 8.136C49.4542 7.584 50.5222 7.308 51.7222 7.308C53.6182 7.308 54.9982 7.92 55.8622 9.144C56.7262 10.368 57.1582 12.096 57.1582 14.328V25.416H53.0182V14.868C53.0182 13.404 52.8022 12.372 52.3702 11.772C51.9382 11.172 51.2302 10.872 50.2462 10.872C49.4782 10.872 48.7942 11.064 48.1942 11.448C47.6182 11.808 46.9582 12.348 46.2142 13.068V25.416H42.0742Z" fill="black"/>
<path d="M27.7942 25.848C26.2582 25.848 24.9982 25.368 24.0142 24.408C23.0542 23.448 22.5742 22.2 22.5742 20.664C22.5742 18.768 23.4022 17.304 25.0582 16.272C26.7142 15.216 29.3542 14.496 32.9782 14.112C32.9542 13.176 32.7022 12.372 32.2222 11.7C31.7662 11.004 30.9382 10.656 29.7382 10.656C28.8742 10.656 28.0222 10.824 27.1822 11.16C26.3662 11.496 25.5622 11.904 24.7702 12.384L23.2582 9.612C24.2422 8.988 25.3462 8.448 26.5702 7.992C27.8182 7.536 29.1382 7.308 30.5302 7.308C32.7382 7.308 34.3822 7.968 35.4622 9.288C36.5662 10.584 37.1182 12.468 37.1182 14.94V25.416H33.6982L33.4102 23.472H33.2662C32.4742 24.144 31.6222 24.708 30.7102 25.164C29.8222 25.62 28.8502 25.848 27.7942 25.848ZM29.1262 22.608C29.8462 22.608 30.4942 22.44 31.0702 22.104C31.6702 21.744 32.3062 21.264 32.9782 20.664V16.704C30.5782 17.016 28.9102 17.484 27.9742 18.108C27.0382 18.708 26.5702 19.452 26.5702 20.34C26.5702 21.132 26.8102 21.708 27.2902 22.068C27.7702 22.428 28.3822 22.608 29.1262 22.608ZM29.9902 33.228C29.2462 33.228 28.6462 33.012 28.1902 32.58C27.7342 32.148 27.5062 31.572 27.5062 30.852C27.5062 30.156 27.7342 29.592 28.1902 29.16C28.6462 28.728 29.2462 28.512 29.9902 28.512C30.7342 28.512 31.3342 28.728 31.7902 29.16C32.2462 29.592 32.4742 30.156 32.4742 30.852C32.4742 31.572 32.2462 32.148 31.7902 32.58C31.3342 33.012 30.7342 33.228 29.9902 33.228Z" fill="black"/>
<path d="M0 25.416V1.872H4.176V11.34H13.716V1.872H17.892V25.416H13.716V14.976H4.176V25.416H0Z" fill="black"/>
</svg>
