<svg width="92" height="92" viewBox="0 0 92 92" fill="none" xmlns="http://www.w3.org/2000/svg" class="icon-svg">
<style>
  .icon-svg path {
    fill: #161616;
  }
  .dark .icon-svg path {
    fill: #ffffff;
  }
</style>
<g id="web--developer">
<path id="Vector" d="M56.0338 8.62509C56.0338 9.41859 55.3898 10.0626 54.5963 10.0626C53.8028 10.0626 53.1588 9.41859 53.1588 8.62509C53.1588 7.83159 53.8028 7.18759 54.5963 7.18759C55.3898 7.18759 56.0338 7.83159 56.0338 8.62509ZM48.8463 7.18759C48.0528 7.18759 47.4087 7.83159 47.4087 8.62509C47.4087 9.41859 48.0528 10.0626 48.8463 10.0626C49.6398 10.0626 50.2838 9.41859 50.2838 8.62509C50.2838 7.83159 49.6398 7.18759 48.8463 7.18759ZM43.0962 7.18759C42.3027 7.18759 41.6587 7.83159 41.6587 8.62509C41.6587 9.41859 42.3027 10.0626 43.0962 10.0626C43.8897 10.0626 44.5337 9.41859 44.5337 8.62509C44.5337 7.83159 43.8897 7.18759 43.0962 7.18759ZM90.16 89.1251H88.09C88.09 76.6447 79.6346 65.6622 67.5251 62.4163C67.1111 62.3071 66.8121 61.9592 66.7633 61.5337C66.7115 61.114 66.93 60.7028 67.3038 60.5045C72.128 57.9227 75.1238 52.926 75.1238 47.4692C75.1238 39.3042 68.494 32.6601 60.3463 32.6601C52.1956 32.6601 45.5659 39.3042 45.5659 47.4692C45.5659 52.926 48.5616 57.9227 53.3859 60.5045C53.7596 60.7028 53.9753 61.114 53.9264 61.5337C53.8775 61.9563 53.5785 62.3071 53.1645 62.4163C41.0924 65.6507 32.6629 76.6332 32.6629 89.1251H30.5929C30.5929 76.4693 38.6458 65.2511 50.439 61.0938C49.4069 60.3435 48.4667 59.481 47.6416 58.5351H2.875C2.30287 58.5351 1.84 58.0722 1.84 57.5001V2.87509C1.84 2.30296 2.30287 1.84009 2.875 1.84009H60.375C60.9471 1.84009 61.41 2.30296 61.41 2.87509V30.6246C70.2046 31.1766 77.1909 38.5222 77.1909 47.4692C77.1909 52.9116 74.5775 57.9486 70.2478 61.0938C82.0813 65.2568 90.16 76.4751 90.16 89.1251ZM3.91 56.4651H46.0949C44.4216 53.823 43.493 50.718 43.493 47.4692C43.493 38.4992 50.5138 31.1421 59.3371 30.6217V15.4101H3.91V56.4651ZM3.91 13.3401H59.34V3.91009H3.91V13.3401ZM31.5962 41.2851H8.59625V39.2151H31.5962V41.2851ZM31.5962 32.6601H8.59625V30.5901H31.5962V32.6601ZM31.5934 24.0351H8.59337V21.9651H31.5934V24.0351Z" fill="#161616"/>
</g>
</svg>
