<svg width="92" height="92" viewBox="0 0 92 92" fill="none" xmlns="http://www.w3.org/2000/svg" class="icon-svg">
<style>
  .icon-svg path {
    fill: #161616;
  }
  .dark .icon-svg path {
    fill: #ffffff;
  }
</style>
<g id="natural--language--understanding">
<path id="Vector" d="M41.285 86.25V40.25C41.285 39.6778 40.8221 39.215 40.25 39.215H2.875C2.30287 39.215 1.84 39.6778 1.84 40.25V86.25C1.84 86.8221 2.30287 87.285 2.875 87.285H40.25C40.8221 87.285 41.285 86.8221 41.285 86.25ZM3.91 41.285H39.215V85.215H3.91V41.285ZM90.16 83.375V74.75C90.16 74.1778 89.6971 73.715 89.125 73.715H63.25C62.6779 73.715 62.215 74.1778 62.215 74.75V83.375C62.215 83.9471 62.6779 84.41 63.25 84.41H89.125C89.6971 84.41 90.16 83.9471 90.16 83.375ZM64.285 75.785H88.0871V82.3371H64.285V75.785ZM34.5 73.715H8.625V75.7878H34.5V73.715ZM72.91 66.125V57.5C72.91 56.9278 72.4471 56.465 71.875 56.465H51.75C51.1779 56.465 50.715 56.9278 50.715 57.5V66.125C50.715 66.6971 51.1779 67.16 51.75 67.16H71.875C72.4471 67.16 72.91 66.6971 72.91 66.125ZM52.785 58.535H70.8371V65.0871H52.785V58.535ZM34.5 62.215H8.625V64.2878H34.5V62.215ZM34.5 50.7178H8.625V52.7907H34.5V50.7178ZM90.16 48.875V40.25C90.16 39.6778 89.6971 39.215 89.125 39.215H63.25C62.6779 39.215 62.215 39.6778 62.215 40.25V48.875C62.215 49.4471 62.6779 49.91 63.25 49.91H89.125C89.6971 49.91 90.16 49.4471 90.16 48.875ZM64.285 41.285H88.0871V47.84H64.285V41.285ZM90.16 31.625V23C90.16 22.4278 89.6971 21.965 89.125 21.965H63.25C62.6779 21.965 62.215 22.4278 62.215 23V31.625C62.215 32.1971 62.6779 32.66 63.25 32.66H89.125C89.6971 32.66 90.16 32.1971 90.16 31.625ZM64.285 24.035H88.0871V30.59H64.285V24.035ZM41.7134 11.5L32.3552 20.8552L30.8919 19.3918L37.7487 12.5321H14.375C11.776 12.535 9.66 14.651 9.66 17.25V31.625H7.59V17.25C7.59 13.5096 10.6346 10.465 14.375 10.465H37.7516L30.8947 3.60522L32.3581 2.14185L41.7134 11.5ZM72.91 14.375V5.74997C72.91 5.17785 72.4471 4.71497 71.875 4.71497H51.75C51.1779 4.71497 50.715 5.17785 50.715 5.74997V14.375C50.715 14.9471 51.1779 15.41 51.75 15.41H71.875C72.4471 15.41 72.91 14.9471 72.91 14.375ZM52.785 6.78497H70.8371V13.34H52.785V6.78497Z"/>
</g>
</svg>
