<svg width="92" height="92" viewBox="0 0 92 92" fill="none" xmlns="http://www.w3.org/2000/svg" class="icon-svg">
<style>
  .icon-svg path {
    fill: #161616;
  }
  .dark .icon-svg path {
    fill: #ffffff;
  }
</style>
<g id="renew--team">
<path id="Vector" d="M44.3756 47.1328C44.3354 47.5726 44.0162 47.9406 43.585 48.0413C38.847 49.1654 35.5379 53.3485 35.5379 58.2216V69H33.4679V58.2216C33.4679 53.1444 36.4665 48.6939 40.9831 46.7331C39.3789 45.3129 38.4157 43.2544 38.4157 41.0464C38.4157 38.0966 40.1091 35.535 42.573 34.2815C42.7857 33.6893 42.8921 33.0683 42.8921 32.4272C42.8921 29.3825 40.4167 26.9072 37.3721 26.9072C34.3275 26.9072 31.8521 29.3825 31.8521 32.4272C31.8521 34.6035 33.1401 36.5815 35.1354 37.467C35.5407 37.6481 35.7851 38.065 35.7449 38.5078C35.7046 38.9505 35.3855 39.3157 34.9542 39.4192C30.2191 40.5433 26.9129 44.7293 26.9129 49.5995V60.375H24.84V49.6024C24.84 44.528 27.8357 40.0746 32.3495 38.1139C30.7452 36.6965 29.7821 34.638 29.7821 32.4272C29.7821 28.2411 33.1861 24.8372 37.3721 24.8372C41.5581 24.8372 44.9621 28.2411 44.9621 32.4272C44.9621 32.8038 44.9362 33.1775 44.8816 33.5455C45.6119 33.4391 46.3881 33.4391 47.1184 33.5455C47.0637 33.1775 47.0379 32.8067 47.0379 32.4272C47.0379 28.2411 50.4419 24.8372 54.6279 24.8372C58.811 24.8372 62.2179 28.2411 62.2179 32.4272C62.2179 34.6352 61.2547 36.6936 59.6476 38.1139C64.1614 40.0746 67.16 44.5252 67.16 49.6024V60.375H65.09V49.6024C65.09 44.7322 61.7837 40.5462 57.0486 39.422C56.6174 39.3185 56.2982 38.9534 56.258 38.5107C56.2178 38.0679 56.4621 37.651 56.8675 37.4699C58.8599 36.5844 60.1479 34.6035 60.1479 32.43C60.1479 29.3854 57.6754 26.91 54.6307 26.91C51.5861 26.91 49.1107 29.3854 49.1107 32.43C49.1107 33.0683 49.2171 33.6893 49.427 34.2844C51.8966 35.5379 53.5957 38.0995 53.5957 41.0522C53.5957 43.2602 52.6326 45.3186 51.0255 46.7389C55.5364 48.6968 58.535 53.1502 58.535 58.2274V69H56.465V58.2216C56.465 53.3514 53.1616 49.1654 48.4265 48.0413C47.9952 47.9406 47.6761 47.5726 47.6359 47.1299C47.5956 46.69 47.84 46.2703 48.2454 46.0891C50.2377 45.2037 51.5257 43.2228 51.5257 41.0493C51.5257 38.0075 49.0504 35.535 46.0029 35.535C42.9611 35.535 40.4886 38.0075 40.4886 41.0493C40.4886 43.2257 41.7766 45.2037 43.769 46.0891C44.1715 46.2703 44.4159 46.69 44.3756 47.1328ZM9.66 45.9914C9.66 26.8468 24.5582 11.1522 43.3694 9.79515L39.5197 13.6448L40.9831 15.1082L47.4634 8.62503L40.9802 2.14478L39.5169 3.60815L43.6195 7.71365C23.552 8.9499 7.59 25.6191 7.59 45.9914C7.59 63.8911 19.7397 79.2638 37.1364 83.3722L37.6136 81.3568C21.1542 77.4669 9.66 62.9251 9.66 45.9914ZM84.41 46C84.41 28.1003 72.2574 12.7276 54.8636 8.6164L54.3864 10.6318C70.8457 14.5188 82.34 29.0634 82.34 46C82.34 65.1475 67.4446 80.8479 48.6335 82.2049L52.4831 78.3581L51.0169 76.8919L44.5366 83.375L51.0169 89.8581L52.4831 88.3919L48.3805 84.2893C68.4509 83.0502 84.41 66.378 84.41 46Z" fill="#161616"/>
</g>
</svg>
